<mxfile host="65bd71144e">
    <diagram id="5-2Jg0eb5XH9SDfzA1oY" name="第 1 页">
        <mxGraphModel dx="878" dy="1340" grid="0" gridSize="10" guides="0" tooltips="1" connect="1" arrows="1" fold="1" page="0" pageScale="1" pageWidth="827" pageHeight="1169" math="0" shadow="0">
            <root>
                <mxCell id="0"/>
                <mxCell id="1" parent="0"/>
                <mxCell id="8" style="edgeStyle=none;html=1;exitX=1;exitY=0.5;exitDx=0;exitDy=0;entryX=0;entryY=0.5;entryDx=0;entryDy=0;" edge="1" parent="1" source="2" target="3">
                    <mxGeometry relative="1" as="geometry"/>
                </mxCell>
                <mxCell id="2" value="Source Data" style="rounded=0;whiteSpace=wrap;html=1;" vertex="1" parent="1">
                    <mxGeometry x="70" y="280" width="100" height="60" as="geometry"/>
                </mxCell>
                <mxCell id="10" style="edgeStyle=none;html=1;exitX=1;exitY=0.5;exitDx=0;exitDy=0;entryX=0;entryY=0.5;entryDx=0;entryDy=0;" edge="1" parent="1" source="3" target="5">
                    <mxGeometry relative="1" as="geometry"/>
                </mxCell>
                <mxCell id="3" value="Data Loading &amp;amp; Chunking" style="rounded=0;whiteSpace=wrap;html=1;" vertex="1" parent="1">
                    <mxGeometry x="220" y="280" width="120" height="60" as="geometry"/>
                </mxCell>
                <mxCell id="11" style="edgeStyle=none;html=1;exitX=1;exitY=0.5;exitDx=0;exitDy=0;entryX=0;entryY=0.5;entryDx=0;entryDy=0;" edge="1" parent="1" source="5" target="6">
                    <mxGeometry relative="1" as="geometry"/>
                </mxCell>
                <mxCell id="5" value="Embedding Models" style="rounded=0;whiteSpace=wrap;html=1;" vertex="1" parent="1">
                    <mxGeometry x="390" y="280" width="120" height="60" as="geometry"/>
                </mxCell>
                <mxCell id="12" style="edgeStyle=none;html=1;exitX=1;exitY=0.5;exitDx=0;exitDy=0;entryX=0;entryY=0.5;entryDx=0;entryDy=0;" edge="1" parent="1" source="6" target="7">
                    <mxGeometry relative="1" as="geometry"/>
                </mxCell>
                <mxCell id="6" value="Vectors" style="rounded=0;whiteSpace=wrap;html=1;" vertex="1" parent="1">
                    <mxGeometry x="560" y="280" width="120" height="60" as="geometry"/>
                </mxCell>
                <mxCell id="7" value="Database" style="rounded=0;whiteSpace=wrap;html=1;" vertex="1" parent="1">
                    <mxGeometry x="730" y="280" width="120" height="60" as="geometry"/>
                </mxCell>
            </root>
        </mxGraphModel>
    </diagram>
    <diagram id="vGJ2eGDLI_Ew4kPJ1YxZ" name="第 2 页">
        <mxGraphModel dx="622" dy="949" grid="0" gridSize="10" guides="1" tooltips="1" connect="1" arrows="1" fold="1" page="0" pageScale="1" pageWidth="827" pageHeight="1169" math="0" shadow="0">
            <root>
                <mxCell id="0"/>
                <mxCell id="1" parent="0"/>
                <mxCell id="VQfpJwFaRny-60qahCGq-13" style="edgeStyle=none;html=1;exitX=0.5;exitY=1;exitDx=0;exitDy=0;entryX=0;entryY=0.5;entryDx=0;entryDy=0;" edge="1" parent="1" source="VQfpJwFaRny-60qahCGq-2" target="VQfpJwFaRny-60qahCGq-10">
                    <mxGeometry relative="1" as="geometry">
                        <Array as="points">
                            <mxPoint x="120" y="485"/>
                        </Array>
                    </mxGeometry>
                </mxCell>
                <mxCell id="VQfpJwFaRny-60qahCGq-2" value="query" style="rounded=0;whiteSpace=wrap;html=1;" vertex="1" parent="1">
                    <mxGeometry x="70" y="280" width="100" height="60" as="geometry"/>
                </mxCell>
                <mxCell id="VQfpJwFaRny-60qahCGq-3" style="edgeStyle=none;html=1;exitX=1;exitY=0.5;exitDx=0;exitDy=0;entryX=0;entryY=0.5;entryDx=0;entryDy=0;" edge="1" parent="1" target="VQfpJwFaRny-60qahCGq-6">
                    <mxGeometry relative="1" as="geometry">
                        <mxPoint x="170" y="310" as="sourcePoint"/>
                    </mxGeometry>
                </mxCell>
                <mxCell id="VQfpJwFaRny-60qahCGq-5" style="edgeStyle=none;html=1;exitX=1;exitY=0.5;exitDx=0;exitDy=0;entryX=0;entryY=0.5;entryDx=0;entryDy=0;" edge="1" parent="1" source="VQfpJwFaRny-60qahCGq-6" target="VQfpJwFaRny-60qahCGq-8">
                    <mxGeometry relative="1" as="geometry"/>
                </mxCell>
                <mxCell id="VQfpJwFaRny-60qahCGq-6" value="Embedding Models" style="rounded=0;whiteSpace=wrap;html=1;" vertex="1" parent="1">
                    <mxGeometry x="220" y="280" width="120" height="60" as="geometry"/>
                </mxCell>
                <mxCell id="VQfpJwFaRny-60qahCGq-7" style="edgeStyle=none;html=1;exitX=1;exitY=0.5;exitDx=0;exitDy=0;entryX=0;entryY=0.5;entryDx=0;entryDy=0;" edge="1" parent="1" source="VQfpJwFaRny-60qahCGq-8" target="VQfpJwFaRny-60qahCGq-9">
                    <mxGeometry relative="1" as="geometry"/>
                </mxCell>
                <mxCell id="VQfpJwFaRny-60qahCGq-8" value="Vector store index" style="rounded=0;whiteSpace=wrap;html=1;" vertex="1" parent="1">
                    <mxGeometry x="390" y="280" width="120" height="60" as="geometry"/>
                </mxCell>
                <mxCell id="VQfpJwFaRny-60qahCGq-12" style="edgeStyle=none;html=1;exitX=0.5;exitY=1;exitDx=0;exitDy=0;entryX=0.5;entryY=0;entryDx=0;entryDy=0;" edge="1" parent="1" source="VQfpJwFaRny-60qahCGq-9" target="VQfpJwFaRny-60qahCGq-11">
                    <mxGeometry relative="1" as="geometry"/>
                </mxCell>
                <mxCell id="VQfpJwFaRny-60qahCGq-9" value="Database" style="rounded=0;whiteSpace=wrap;html=1;" vertex="1" parent="1">
                    <mxGeometry x="560" y="280" width="120" height="60" as="geometry"/>
                </mxCell>
                <mxCell id="VQfpJwFaRny-60qahCGq-17" style="edgeStyle=none;html=1;exitX=1;exitY=0.5;exitDx=0;exitDy=0;entryX=0;entryY=0.5;entryDx=0;entryDy=0;" edge="1" parent="1" source="VQfpJwFaRny-60qahCGq-10" target="VQfpJwFaRny-60qahCGq-16">
                    <mxGeometry relative="1" as="geometry"/>
                </mxCell>
                <mxCell id="VQfpJwFaRny-60qahCGq-10" value="LLM" style="rounded=0;whiteSpace=wrap;html=1;" vertex="1" parent="1">
                    <mxGeometry x="220" y="455" width="120" height="60" as="geometry"/>
                </mxCell>
                <mxCell id="VQfpJwFaRny-60qahCGq-14" style="edgeStyle=none;html=1;exitX=0;exitY=0.5;exitDx=0;exitDy=0;entryX=0.5;entryY=0;entryDx=0;entryDy=0;" edge="1" parent="1" source="VQfpJwFaRny-60qahCGq-11" target="VQfpJwFaRny-60qahCGq-10">
                    <mxGeometry relative="1" as="geometry">
                        <Array as="points">
                            <mxPoint x="280" y="404"/>
                        </Array>
                    </mxGeometry>
                </mxCell>
                <mxCell id="VQfpJwFaRny-60qahCGq-11" value="Context" style="rounded=0;whiteSpace=wrap;html=1;" vertex="1" parent="1">
                    <mxGeometry x="560" y="371" width="120" height="60" as="geometry"/>
                </mxCell>
                <mxCell id="VQfpJwFaRny-60qahCGq-16" value="Answer" style="rounded=0;whiteSpace=wrap;html=1;" vertex="1" parent="1">
                    <mxGeometry x="390" y="455" width="120" height="60" as="geometry"/>
                </mxCell>
            </root>
        </mxGraphModel>
    </diagram>
</mxfile>